<svg width="91" height="26" viewBox="0 0 91 26" fill="none" xmlns="http://www.w3.org/2000/svg">
<rect y="6.60352" width="12.6682" height="3.35481" fill="#5C5C5C"/>
<path fill-rule="evenodd" clip-rule="evenodd" d="M7.9559 16.3675V9.94824H4.61275V19.3218H7.9559V18.2201H6.38418C6.25974 18.2201 6.15886 18.1192 6.15886 17.9948C6.15886 17.8704 6.25974 17.7695 6.38418 17.7695H7.9559V17.5192H6.38418C6.25974 17.5192 6.15886 17.4183 6.15886 17.2939C6.15886 17.1694 6.25974 17.0686 6.38418 17.0686H7.9559V16.8182H6.38412C6.25968 16.8182 6.1588 16.7173 6.1588 16.5929C6.1588 16.4684 6.25968 16.3675 6.38412 16.3675H7.9559Z" fill="#5C5C5C"/>
<path d="M3.78037 9.05693C4.25678 8.26727 4.76032 7.77563 5.5061 7.31871C6.25188 6.86178 7.08243 6.61302 7.92613 6.59387L7.93848 12.4214L3.78037 9.05693Z" fill="#7D7D7D"/>
<path d="M19.4475 9.52458V11.513H23.338V14.0894H19.4475V16.2853H23.8567V19H16.0585V6.8099H23.8567V9.52458H19.4475Z" fill="#5C5C5C"/>
<path d="M36.9455 19.121C35.5276 19.121 34.3634 18.7867 33.4527 18.1182C32.542 17.4381 32.0521 16.4698 31.983 15.2133H35.5968C35.6314 15.6398 35.7582 15.951 35.9772 16.147C36.1962 16.343 36.4786 16.4409 36.8244 16.4409C37.1357 16.4409 37.3893 16.366 37.5852 16.2162C37.7927 16.0548 37.8965 15.8358 37.8965 15.5591C37.8965 15.2018 37.7293 14.9251 37.395 14.7291C37.0607 14.5332 36.519 14.3142 35.7697 14.0721C34.9743 13.807 34.3288 13.5534 33.8331 13.3113C33.349 13.0577 32.9224 12.6946 32.5536 12.222C32.1962 11.7378 32.0176 11.1096 32.0176 10.3372C32.0176 9.55339 32.2135 8.88481 32.6054 8.3315C32.9974 7.76667 33.5392 7.34016 34.2308 7.05197C34.9224 6.76379 35.7063 6.6197 36.5824 6.6197C38.0002 6.6197 39.1299 6.95399 39.9714 7.62257C40.8244 8.27963 41.2797 9.20758 41.3374 10.4064H37.6544C37.6429 10.0375 37.5276 9.76088 37.3086 9.57645C37.1011 9.39201 36.8302 9.29979 36.4959 9.29979C36.2423 9.29979 36.0348 9.37472 35.8734 9.52458C35.712 9.67443 35.6314 9.88768 35.6314 10.1643C35.6314 10.3949 35.7178 10.5966 35.8907 10.7695C36.0752 10.9309 36.2999 11.075 36.5651 11.2018C36.8302 11.3171 37.2221 11.4669 37.7409 11.6514C38.5132 11.9165 39.1472 12.1816 39.6429 12.4467C40.1501 12.7003 40.5823 13.0635 40.9397 13.5361C41.3085 13.9972 41.493 14.5851 41.493 15.2997C41.493 16.026 41.3085 16.6773 40.9397 17.2536C40.5823 17.83 40.0578 18.2853 39.3662 18.6196C38.6861 18.9539 37.8792 19.121 36.9455 19.121ZM52.9416 6.8099V9.50728H49.6909V19H46.3019V9.50728H43.0858V6.8099H52.9416ZM60.7314 19.121C59.5902 19.121 58.5412 18.8559 57.5845 18.3257C56.6277 17.7839 55.8669 17.0404 55.3021 16.0951C54.7488 15.1384 54.4721 14.0606 54.4721 12.8617C54.4721 11.6629 54.7488 10.5908 55.3021 9.64561C55.8669 8.68885 56.6277 7.94534 57.5845 7.41508C58.5412 6.88483 59.5902 6.6197 60.7314 6.6197C61.8842 6.6197 62.9331 6.88483 63.8784 7.41508C64.8351 7.94534 65.5902 8.68885 66.1435 9.64561C66.6968 10.5908 66.9734 11.6629 66.9734 12.8617C66.9734 14.0606 66.6968 15.1384 66.1435 16.0951C65.5902 17.0404 64.8351 17.7839 63.8784 18.3257C62.9216 18.8559 61.8726 19.121 60.7314 19.121ZM60.7314 15.9741C61.596 15.9741 62.2761 15.6917 62.7718 15.1268C63.279 14.562 63.5326 13.807 63.5326 12.8617C63.5326 11.8934 63.279 11.1326 62.7718 10.5793C62.2761 10.0145 61.596 9.73207 60.7314 9.73207C59.8554 9.73207 59.1695 10.0145 58.6738 10.5793C58.1781 11.1326 57.9303 11.8934 57.9303 12.8617C57.9303 13.8185 58.1781 14.5793 58.6738 15.1441C59.1695 15.6974 59.8554 15.9741 60.7314 15.9741ZM75.3614 19L72.9407 14.5044H72.5776V19H69.1886V6.8099H74.5315C75.5113 6.8099 76.3413 6.98281 77.0214 7.32863C77.7015 7.66292 78.2144 8.12977 78.5603 8.72919C78.9061 9.31708 79.079 9.9799 79.079 10.7176C79.079 11.5476 78.8484 12.2796 78.3873 12.9136C77.9378 13.5361 77.275 13.9799 76.3989 14.245L79.1481 19H75.3614ZM72.5776 12.1874H74.2548C74.7159 12.1874 75.0617 12.0779 75.2923 11.8588C75.5228 11.6398 75.6381 11.3228 75.6381 10.9078C75.6381 10.5159 75.5171 10.2104 75.275 9.99143C75.0444 9.76088 74.7044 9.64561 74.2548 9.64561H72.5776V12.1874ZM84.7008 9.52458V11.513H88.5913V14.0894H84.7008V16.2853H89.11V19H81.3118V6.8099H89.11V9.52458H84.7008Z" fill="#5C5C5C"/>
</svg>
