<svg width="49" height="67" viewBox="0 0 49 67" fill="none" xmlns="http://www.w3.org/2000/svg">
<g clip-path="url(#clip0_1_688)" filter="url(#filter0_dddd_1_688)">
<path d="M36.8002 14C36.8002 7.3726 31.4276 2.00002 24.8002 2.00002C18.1728 2.00002 12.8002 7.3726 12.8002 14C12.8002 19.6278 16.6745 24.3499 21.9013 25.6466V17.667H19.4268V14H21.9013V12.4199C21.9013 8.33548 23.7496 6.44236 27.7596 6.44236C28.5198 6.44236 29.8316 6.5914 30.3682 6.74049V10.0647C30.085 10.0349 29.5931 10.0199 28.9819 10.0199C27.0142 10.0199 26.2539 10.7653 26.2539 12.7031V14H30.1736L29.5002 17.667H26.2539V25.9121C32.1957 25.1945 36.8002 20.1353 36.8002 14Z" fill="black"/>
<path d="M29.5002 17.667L30.1736 14H26.254V12.7031C26.254 10.7652 27.0142 10.0199 28.9819 10.0199C29.5931 10.0199 30.085 10.0348 30.3682 10.0646V6.7405C29.8316 6.59141 28.5198 6.44232 27.7596 6.44232C23.7497 6.44232 21.9013 8.33549 21.9013 12.4199V14H19.4268V17.667H21.9013V25.6466C22.8297 25.8769 23.8005 26 24.8002 26C25.2924 26 25.7773 25.9697 26.254 25.9121V17.667H29.5002Z" fill="white"/>
</g>
<defs>
<filter id="filter0_dddd_1_688" x="0.800171" y="0" width="48" height="67" filterUnits="userSpaceOnUse" color-interpolation-filters="sRGB">
<feFlood flood-opacity="0" result="BackgroundImageFix"/>
<feColorMatrix in="SourceAlpha" type="matrix" values="0 0 0 0 0 0 0 0 0 0 0 0 0 0 0 0 0 0 127 0" result="hardAlpha"/>
<feOffset dy="2"/>
<feGaussianBlur stdDeviation="2"/>
<feColorMatrix type="matrix" values="0 0 0 0 0 0 0 0 0 0 0 0 0 0 0 0 0 0 0.1 0"/>
<feBlend mode="normal" in2="BackgroundImageFix" result="effect1_dropShadow_1_688"/>
<feColorMatrix in="SourceAlpha" type="matrix" values="0 0 0 0 0 0 0 0 0 0 0 0 0 0 0 0 0 0 127 0" result="hardAlpha"/>
<feOffset dy="7"/>
<feGaussianBlur stdDeviation="3.5"/>
<feColorMatrix type="matrix" values="0 0 0 0 0 0 0 0 0 0 0 0 0 0 0 0 0 0 0.09 0"/>
<feBlend mode="normal" in2="effect1_dropShadow_1_688" result="effect2_dropShadow_1_688"/>
<feColorMatrix in="SourceAlpha" type="matrix" values="0 0 0 0 0 0 0 0 0 0 0 0 0 0 0 0 0 0 127 0" result="hardAlpha"/>
<feOffset dy="16"/>
<feGaussianBlur stdDeviation="5"/>
<feColorMatrix type="matrix" values="0 0 0 0 0 0 0 0 0 0 0 0 0 0 0 0 0 0 0.05 0"/>
<feBlend mode="normal" in2="effect2_dropShadow_1_688" result="effect3_dropShadow_1_688"/>
<feColorMatrix in="SourceAlpha" type="matrix" values="0 0 0 0 0 0 0 0 0 0 0 0 0 0 0 0 0 0 127 0" result="hardAlpha"/>
<feOffset dy="29"/>
<feGaussianBlur stdDeviation="6"/>
<feColorMatrix type="matrix" values="0 0 0 0 0 0 0 0 0 0 0 0 0 0 0 0 0 0 0.01 0"/>
<feBlend mode="normal" in2="effect3_dropShadow_1_688" result="effect4_dropShadow_1_688"/>
<feBlend mode="normal" in="SourceGraphic" in2="effect4_dropShadow_1_688" result="shape"/>
</filter>
<clipPath id="clip0_1_688">
<rect width="24" height="24" fill="white" transform="translate(12.8002 2)"/>
</clipPath>
</defs>
</svg>
