<svg width="49" height="67" viewBox="0 0 49 67" fill="none" xmlns="http://www.w3.org/2000/svg">
<g filter="url(#filter0_dddd_1_689)">
<path d="M31.1954 9.02212C30.4007 9.02368 29.7545 8.3802 29.7529 7.58548C29.7514 6.79076 30.3948 6.14457 31.1899 6.14302C31.985 6.14146 32.6312 6.78531 32.6328 7.58004C32.6339 8.37476 31.9905 9.02057 31.1954 9.02212Z" fill="black"/>
<path fill-rule="evenodd" clip-rule="evenodd" d="M24.8116 20.161C21.4093 20.1676 18.6453 17.4149 18.6387 14.0117C18.6321 10.6092 21.3855 7.84481 24.7879 7.8382C28.1911 7.83159 30.9555 10.5859 30.9621 13.9879C30.9687 17.3912 28.2144 20.1544 24.8116 20.161ZM24.7922 10.0004C22.5838 10.0042 20.7961 11.7986 20.8 14.0074C20.8043 16.2166 22.599 18.0039 24.8074 17.9996C27.0165 17.9954 28.8043 16.2014 28.8 13.9922C28.7957 11.783 27.001 9.99608 24.7922 10.0004Z" fill="black"/>
<path fill-rule="evenodd" clip-rule="evenodd" d="M16.9194 2.64648C17.6814 2.34788 18.5535 2.14336 19.8303 2.0831C21.1103 2.02167 21.5189 2.00767 24.777 2.00145C28.036 1.99523 28.4446 2.00767 29.7245 2.06443C31.0017 2.11964 31.8742 2.32105 32.6378 2.61654C33.4279 2.92097 34.0982 3.33078 34.7661 3.99603C35.4341 4.66205 35.8454 5.33002 36.1537 6.1189C36.452 6.88174 36.6565 7.75306 36.7171 9.03068C36.7778 10.3102 36.7925 10.7185 36.7988 13.9771C36.805 17.2353 36.7918 17.6443 36.7358 18.925C36.6802 20.2014 36.4792 21.0743 36.1837 21.8375C35.8785 22.6276 35.4694 23.2979 34.8042 23.9659C34.139 24.6342 33.4702 25.0452 32.6814 25.3539C31.9185 25.6517 31.0472 25.8562 29.7704 25.9173C28.4905 25.9779 28.0819 25.9923 24.8225 25.9985C21.5648 26.0048 21.1561 25.9923 19.8762 25.9359C18.599 25.88 17.7261 25.6789 16.9629 25.3838C16.1729 25.0782 15.5026 24.6696 14.8346 24.004C14.1663 23.3383 13.7546 22.67 13.4466 21.8811C13.148 21.1186 12.9443 20.2469 12.8832 18.9705C12.8222 17.6901 12.8078 17.2811 12.8016 14.0229C12.7954 10.7644 12.8082 10.3561 12.8642 9.07616C12.9206 7.79855 13.1208 6.92606 13.4163 6.16206C13.7215 5.37239 14.1305 4.70248 14.7965 4.03413C15.4618 3.36616 16.1305 2.95402 16.9194 2.64648ZM17.7417 23.3679C18.1651 23.5308 18.8004 23.7252 19.9703 23.7761C21.2362 23.8309 21.6153 23.843 24.8186 23.8368C28.0231 23.8309 28.4022 23.8173 29.6678 23.7579C30.8365 23.7022 31.4718 23.5055 31.894 23.3407C32.4543 23.1218 32.8532 22.8601 33.2723 22.4406C33.6915 22.0195 33.9508 21.6194 34.1677 21.0591C34.331 20.6354 34.5251 19.9996 34.576 18.8297C34.6316 17.5646 34.6432 17.1851 34.637 13.9809C34.6312 10.7776 34.6176 10.3981 34.5573 9.13254C34.5021 7.96339 34.3058 7.32808 34.1405 6.90623C33.9216 6.34519 33.6607 5.94705 33.2401 5.52753C32.8194 5.10801 32.4193 4.84945 31.8583 4.6325C31.4356 4.46881 30.7996 4.27518 29.6305 4.22426C28.3645 4.16865 27.985 4.15737 24.7809 4.1636C21.5776 4.16982 21.1985 4.18264 19.933 4.24253C18.7635 4.29812 18.1289 4.49447 17.7059 4.65972C17.146 4.87861 16.7471 5.13872 16.3276 5.5598C15.9089 5.98087 15.6496 6.38018 15.4326 6.94161C15.2701 7.36464 15.0745 8.00072 15.0244 9.16987C14.9692 10.4358 14.9575 10.8153 14.9637 14.0187C14.9696 17.2228 14.9832 17.6023 15.0426 18.8671C15.0975 20.037 15.2954 20.6715 15.4598 21.0949C15.6787 21.6544 15.9396 22.0533 16.3599 22.4729C16.781 22.8908 17.1811 23.1509 17.7417 23.3679Z" fill="black"/>
</g>
<defs>
<filter id="filter0_dddd_1_689" x="0.800171" y="0" width="48" height="67" filterUnits="userSpaceOnUse" color-interpolation-filters="sRGB">
<feFlood flood-opacity="0" result="BackgroundImageFix"/>
<feColorMatrix in="SourceAlpha" type="matrix" values="0 0 0 0 0 0 0 0 0 0 0 0 0 0 0 0 0 0 127 0" result="hardAlpha"/>
<feOffset dy="2"/>
<feGaussianBlur stdDeviation="2"/>
<feColorMatrix type="matrix" values="0 0 0 0 0 0 0 0 0 0 0 0 0 0 0 0 0 0 0.1 0"/>
<feBlend mode="normal" in2="BackgroundImageFix" result="effect1_dropShadow_1_689"/>
<feColorMatrix in="SourceAlpha" type="matrix" values="0 0 0 0 0 0 0 0 0 0 0 0 0 0 0 0 0 0 127 0" result="hardAlpha"/>
<feOffset dy="7"/>
<feGaussianBlur stdDeviation="3.5"/>
<feColorMatrix type="matrix" values="0 0 0 0 0 0 0 0 0 0 0 0 0 0 0 0 0 0 0.09 0"/>
<feBlend mode="normal" in2="effect1_dropShadow_1_689" result="effect2_dropShadow_1_689"/>
<feColorMatrix in="SourceAlpha" type="matrix" values="0 0 0 0 0 0 0 0 0 0 0 0 0 0 0 0 0 0 127 0" result="hardAlpha"/>
<feOffset dy="16"/>
<feGaussianBlur stdDeviation="5"/>
<feColorMatrix type="matrix" values="0 0 0 0 0 0 0 0 0 0 0 0 0 0 0 0 0 0 0.05 0"/>
<feBlend mode="normal" in2="effect2_dropShadow_1_689" result="effect3_dropShadow_1_689"/>
<feColorMatrix in="SourceAlpha" type="matrix" values="0 0 0 0 0 0 0 0 0 0 0 0 0 0 0 0 0 0 127 0" result="hardAlpha"/>
<feOffset dy="29"/>
<feGaussianBlur stdDeviation="6"/>
<feColorMatrix type="matrix" values="0 0 0 0 0 0 0 0 0 0 0 0 0 0 0 0 0 0 0.01 0"/>
<feBlend mode="normal" in2="effect3_dropShadow_1_689" result="effect4_dropShadow_1_689"/>
<feBlend mode="normal" in="SourceGraphic" in2="effect4_dropShadow_1_689" result="shape"/>
</filter>
</defs>
</svg>
